<svg xmlns="http://www.w3.org/2000/svg">

<symbol id="HOMElove" viewBox="0 0 24 24">
<path d="M16,2.75c0,2.163-2.82,4.851-4.225,5.978a1.239,1.239,0,0,1-1.55,0C8.82,7.6,6,4.913,6,2.75A2.634,2.634,0,0,1,8.5,0,2.634,2.634,0,0,1,11,2.75,2.634,2.634,0,0,1,13.5,0,2.634,2.634,0,0,1,16,2.75Zm7.338,9.6-7.7,8.409A10,10,0,0,1,8.262,24H4a4,4,0,0,1-4-4V15a4,4,0,0,1,4-4h7.787a2.218,2.218,0,0,1,2.164,2.685,2.28,2.28,0,0,1-1.94,1.732L7.848,16A1,1,0,0,0,7,17.131H7a1,1,0,0,0,1.131.849l4.252-.6A4.234,4.234,0,0,0,16,13.213a4.081,4.081,0,0,0-.065-.638l3.542-3.737a2.606,2.606,0,0,1,3.671-.157A2.616,2.616,0,0,1,23.338,12.345Z"/>
</symbol>

<symbol id="HOMEprice" viewBox="0 0 24 24">
<path d="M22.432,11.046c-.338-.846-.824-1.636-1.432-2.327v-3.715c0-.618-.278-1.192-.764-1.576-.478-.377-1.089-.513-1.681-.374-1.825,.435-3.194,1.469-3.927,2.946h-5.363c-2.581,0-4.898,1.158-6.419,2.969-1.2-.175-1.055-1.971,.153-1.969,1.307-.005,1.308-1.995,0-2-3.185-.01-4.129,4.406-1.268,5.709-1.759,3.62-.229,8.282,3.268,10.212v.079c.002,3.351,4.74,4.118,5.829,1h2.343c1.089,3.12,5.827,2.349,5.829-1v-.092c1.56-.903,2.771-2.3,3.432-3.954,.821-.175,1.568-.848,1.568-1.954v-2c0-1.106-.748-1.779-1.568-1.954Zm-4.432,1.954c-1.308-.006-1.308-1.994,0-2,1.308,.006,1.308,1.994,0,2ZM6.052,4.512c-.562-5.591,7.74-6.132,7.948-.512h-4.734c-1.121,0-2.2,.185-3.214,.512Z"/>
</symbol>

<symbol id="HOMEhandshake" viewBox="0 0 24 24">
<path d="M23,15h-.667c-.25,0-.498,.019-.745,.057l-7.046-5.284,1.688-1.616c.399-.382,.413-1.016,.031-1.414-.383-.399-1.017-.412-1.414-.031l-4.173,3.995c-.208,.208-.491,.315-.788,.29-.298-.024-.56-.175-.739-.425-.274-.38-.19-.975,.168-1.334l4.703-4.429c.891-.837,2.284-1.042,3.374-.495l2.316,1.158c.69,.345,1.464,.527,2.235,.527h1.056c.553,0,1-.447,1-1s-.447-1-1-1h-1.056c-.463,0-.928-.109-1.342-.316l-2.314-1.158c-1.824-.913-4.153-.574-5.641,.828l-.618,.582-.7-.638c-.919-.837-2.109-1.298-3.39-1.298-.771,0-1.54,.182-2.227,.525l-2.314,1.158c-.415,.207-.88,.316-1.343,.316H1c-.553,0-1,.447-1,1s.447,1,1,1h1.056c.771,0,1.545-.183,2.236-.527l2.316-1.158c1.022-.514,2.458-.375,3.374,.462l.587,.535-2.646,2.492c-1.073,1.072-1.244,2.767-.398,3.938,.52,.723,1.553,1.259,2.444,1.259,.793,0,1.554-.312,2.104-.863l1.006-.963,6.346,4.759c-.031,.022-6.198,4.646-6.198,4.646-.723,.562-1.732,.562-2.47-.011l-6.091-4.568c-.859-.645-1.925-1-3-1h-.667c-.553,0-1,.447-1,1s.447,1,1,1h.667c.645,0,1.284,.213,1.8,.6l6.077,4.558c.725,.564,1.594,.846,2.461,.846,.862,0,1.723-.279,2.437-.835l6.093-4.568c.515-.387,1.154-.6,1.799-.6h.667c.553,0,1-.447,1-1s-.447-1-1-1Z"/>
</symbol>

<symbol id="HOMErunning" viewBox="0 0 24 24">
<path d="M12,2.5A2.5,2.5,0,1,1,14.5,5,2.5,2.5,0,0,1,12,2.5ZM18.681,10,16.227,7.2A3.5,3.5,0,0,0,13.592,6H5.168l-2.94,4.705L4.772,12.3,6.832,9H9.5L8.239,12.084a3.511,3.511,0,0,0,1.427,4.322L14,18.872V24h3V17.128L12.561,14.6l1.992-4.765L17.319,13H22V10ZM7.392,17.028l-.4.972H3v3H9l.892-2.164-1.215-.692A5.879,5.879,0,0,1,7.392,17.028Z"/>
</symbol>

<symbol id="HOMEmed" viewBox="0 0 24 24">
<path d="m24 9a3 3 0 1 0 -4 2.816v4.184a6 6 0 0 1 -12 0v-.08a7.006 7.006 0 0 0 6-6.92v-4a5.006 5.006 0 0 0 -5-5 1 1 0 0 0 0 2 3 3 0 0 1 3 3v4a5 5 0 0 1 -10 0v-4a3 3 0 0 1 3-3 1 1 0 0 0 0-2 5.006 5.006 0 0 0 -5 5v4a7.006 7.006 0 0 0 6 6.92v.08a8 8 0 0 0 16 0v-4.184a3 3 0 0 0 2-2.816zm-3 1a1 1 0 1 1 1-1 1 1 0 0 1 -1 1z"/>
</symbol>

<symbol id="HOMErocket" viewBox="0 0 24 24">
<path d="M2.751,15H0V14A7.634,7.634,0,0,1,4.065,7.169a10.975,10.975,0,0,1,3.9-1.09q-.889,1.1-1.783,2.338A40.582,40.582,0,0,0,2.751,15Zm12.832,2.813A40.582,40.582,0,0,1,9,21.249V24h1a7.634,7.634,0,0,0,6.831-4.065,10.975,10.975,0,0,0,1.09-3.9Q16.826,16.92,15.583,17.813ZM24,2.991c-.133,4.353-3.267,8.67-9.582,13.2A34.995,34.995,0,0,1,9,19.063V18.5A3.517,3.517,0,0,0,5.5,15H4.937A34.912,34.912,0,0,1,7.813,9.583C12.332,3.278,16.642.144,20.988,0,23.154,0,24,.885,24,2.991ZM18,8.5a2.5,2.5,0,0,0-5,0A2.5,2.5,0,0,0,18,8.5ZM1.374,23.785c1.126-.2,3.841-.758,4.748-1.664h0a3,3,0,0,0-4.243-4.243C.973,18.785.414,21.5.215,22.626l-.247,1.406Z"/>
</symbol>

<symbol id="insta" viewBox="0 0 24 24">
<path d="M14.829 6.302c-.738-.034-.96-.04-2.829-.04s-2.09.007-2.828.04c-1.899.087-2.783.986-2.87 2.87-.033.738-.041.959-.041 2.828s.008 2.09.041 2.829c.087 1.879.967 2.783 2.87 2.87.737.033.959.041 2.828.041 1.87 0 2.091-.007 2.829-.041 1.899-.086 2.782-.988 2.87-2.87.033-.738.04-.96.04-2.829s-.007-2.09-.04-2.828c-.088-1.883-.973-2.783-2.87-2.87zm-2.829 9.293c-1.985 0-3.595-1.609-3.595-3.595 0-1.985 1.61-3.594 3.595-3.594s3.595 1.609 3.595 3.594c0 1.985-1.61 3.595-3.595 3.595zm3.737-6.491c-.464 0-.84-.376-.84-.84 0-.464.376-.84.84-.84.464 0 .84.376.84.84 0 .463-.376.84-.84.84zm-1.404 2.896c0 1.289-1.045 2.333-2.333 2.333s-2.333-1.044-2.333-2.333c0-1.289 1.045-2.333 2.333-2.333s2.333 1.044 2.333 2.333zm-2.333-12c-6.627 0-12 5.373-12 12s5.373 12 12 12 12-5.373 12-12-5.373-12-12-12zm6.958 14.886c-.115 2.545-1.532 3.955-4.071 4.072-.747.034-.986.042-2.887.042s-2.139-.008-2.886-.042c-2.544-.117-3.955-1.529-4.072-4.072-.034-.746-.042-.985-.042-2.886 0-1.901.008-2.139.042-2.886.117-2.544 1.529-3.955 4.072-4.071.747-.035.985-.043 2.886-.043s2.14.008 2.887.043c2.545.117 3.957 1.532 4.071 4.071.034.747.042.985.042 2.886 0 1.901-.008 2.14-.042 2.886z"/>
</symbol>

<symbol id="facebook" viewBox="0 0 50 50">
<path d="M25,3C12.85,3,3,12.85,3,25c0,11.03,8.125,20.137,18.712,21.728V30.831h-5.443v-5.783h5.443v-3.848 c0-6.371,3.104-9.168,8.399-9.168c2.536,0,3.877,0.188,4.512,0.274v5.048h-3.612c-2.248,0-3.033,2.131-3.033,4.533v3.161h6.588 l-0.894,5.783h-5.694v15.944C38.716,45.318,47,36.137,47,25C47,12.85,37.15,3,25,3z"/>
</symbol>

<symbol id="telegram" viewBox="0 0 50 50">
<path d="M25,2c12.703,0,23,10.297,23,23S37.703,48,25,48S2,37.703,2,25S12.297,2,25,2z M32.934,34.375	c0.423-1.298,2.405-14.234,2.65-16.783c0.074-0.772-0.17-1.285-0.648-1.514c-0.578-0.278-1.434-0.139-2.427,0.219	c-1.362,0.491-18.774,7.884-19.78,8.312c-0.954,0.405-1.856,0.847-1.856,1.487c0,0.45,0.267,0.703,1.003,0.966	c0.766,0.273,2.695,0.858,3.834,1.172c1.097,0.303,2.346,0.04,3.046-0.395c0.742-0.461,9.305-6.191,9.92-6.693	c0.614-0.502,1.104,0.141,0.602,0.644c-0.502,0.502-6.38,6.207-7.155,6.997c-0.941,0.959-0.273,1.953,0.358,2.351	c0.721,0.454,5.906,3.932,6.687,4.49c0.781,0.558,1.573,0.811,2.298,0.811C32.191,36.439,32.573,35.484,32.934,34.375z"/>
</symbol>

<symbol id="mail" viewBox="0 0 24 24">
<path d="M19,1H5A5.006,5.006,0,0,0,0,6V18a5.006,5.006,0,0,0,5,5H19a5.006,5.006,0,0,0,5-5V6A5.006,5.006,0,0,0,19,1ZM5,3H19a3,3,0,0,1,2.78,1.887l-7.658,7.659a3.007,3.007,0,0,1-4.244,0L2.22,4.887A3,3,0,0,1,5,3ZM19,21H5a3,3,0,0,1-3-3V7.5L8.464,13.96a5.007,5.007,0,0,0,7.072,0L22,7.5V18A3,3,0,0,1,19,21Z"/>
</symbol>

<symbol id="ABOUTUSgps" viewBox="0 0 24 24">
<path d="M12,12A4,4,0,1,0,8,8,4,4,0,0,0,12,12Zm0-6a2,2,0,1,1-2,2A2,2,0,0,1,12,6Zm8.66,3.157-.719-.239A8,8,0,0,0,12,0,7.993,7.993,0,0,0,4.086,9.092a5.045,5.045,0,0,0-2.548,1.3A4.946,4.946,0,0,0,0,14v4.075a5.013,5.013,0,0,0,3.6,4.8l2.87.9A4.981,4.981,0,0,0,7.959,24a5.076,5.076,0,0,0,1.355-.186l5.78-1.71a2.987,2.987,0,0,1,1.573,0l2.387.8A4,4,0,0,0,24,19.021V13.872A5.015,5.015,0,0,0,20.66,9.156ZM7.758,3.762a5.987,5.987,0,0,1,8.484,0,6.037,6.037,0,0,1,.011,8.5L12.7,15.717a.992.992,0,0,1-1.389,0L7.758,12.277A6.04,6.04,0,0,1,7.758,3.762ZM22,19.021a1.991,1.991,0,0,1-.764,1.572,1.969,1.969,0,0,1-1.626.395L17.265,20.2a5.023,5.023,0,0,0-2.717-.016L8.764,21.892a3,3,0,0,1-1.694-.029l-2.894-.9A3.013,3.013,0,0,1,2,18.075V14a2.964,2.964,0,0,1,.92-2.163,3.024,3.024,0,0,1,1.669-.806A8.021,8.021,0,0,0,6.354,13.7l3.567,3.453a2.983,2.983,0,0,0,4.174,0l3.563-3.463a7.962,7.962,0,0,0,1.813-2.821l.537.178A3.006,3.006,0,0,1,22,13.872Z"/>
</symbol>

<symbol id="ABOUTUSphone" viewBox="0 0 24 24">
<path d="M13,1a1,1,0,0,1,1-1A10.011,10.011,0,0,1,24,10a1,1,0,0,1-2,0,8.009,8.009,0,0,0-8-8A1,1,0,0,1,13,1Zm1,5a4,4,0,0,1,4,4,1,1,0,0,0,2,0,6.006,6.006,0,0,0-6-6,1,1,0,0,0,0,2Zm9.093,10.739a3.1,3.1,0,0,1,0,4.378l-.91,1.049c-8.19,7.841-28.12-12.084-20.4-20.3l1.15-1A3.081,3.081,0,0,1,7.26.906c.031.031,1.884,2.438,1.884,2.438a3.1,3.1,0,0,1-.007,4.282L7.979,9.082a12.781,12.781,0,0,0,6.931,6.945l1.465-1.165a3.1,3.1,0,0,1,4.281-.006S23.062,16.708,23.093,16.739Zm-1.376,1.454s-2.393-1.841-2.424-1.872a1.1,1.1,0,0,0-1.549,0c-.027.028-2.044,1.635-2.044,1.635a1,1,0,0,1-.979.152A15.009,15.009,0,0,1,5.9,9.3a1,1,0,0,1,.145-1S7.652,6.282,7.679,6.256a1.1,1.1,0,0,0,0-1.549c-.031-.03-1.872-2.425-1.872-2.425a1.1,1.1,0,0,0-1.51.039l-1.15,1C-2.495,10.105,14.776,26.418,20.721,20.8l.911-1.05A1.121,1.121,0,0,0,21.717,18.193Z"/>
</symbol>
 
</svg>