<svg width="63" height="61" viewBox="0 0 63 61" fill="none" xmlns="http://www.w3.org/2000/svg">
<path d="M36.9113 30H36.4113V30.5V44.2984C36.4113 44.7917 35.9869 45.2258 35.4355 45.2258H27.5645C27.0131 45.2258 26.5887 44.7917 26.5887 44.2984V30.5V30H26.0887H17.3692C16.4638 30 16.088 28.986 16.6709 28.4214C16.6711 28.4212 16.6712 28.421 16.6714 28.4209L30.8135 14.8258L30.8146 14.8247C31.1987 14.4531 31.8136 14.4531 32.1977 14.8247L32.1987 14.8256L46.3295 28.4218L46.331 28.4232C46.9081 28.9741 46.5392 30 45.6308 30H36.9113ZM31.5 0.5C14.3909 0.5 0.5 13.9119 0.5 30.5C0.5 47.0881 14.3909 60.5 31.5 60.5C48.6091 60.5 62.5 47.0881 62.5 30.5C62.5 13.9119 48.6091 0.5 31.5 0.5Z" fill="#FFFFF0" stroke="black"/>
</svg>
