<svg width="45" height="41" viewBox="0 0 45 41" fill="none" xmlns="http://www.w3.org/2000/svg">
<path d="M7.50122 11.1508C6.76203 11.1527 6.02979 11.0088 5.34687 10.7273C4.66395 10.4458 4.0439 10.0324 3.5226 9.51095L0.627699 6.94763C0.256242 6.61811 0.0315595 6.15525 0.00307831 5.66089C-0.0254028 5.16653 0.144651 4.68117 0.475829 4.31156C0.807007 3.94196 1.27218 3.7184 1.76902 3.69006C2.26586 3.66172 2.75366 3.83092 3.12512 4.16045L6.0969 6.79839C6.26702 6.98848 6.47444 7.14193 6.70639 7.24928C6.93835 7.35663 7.18993 7.41561 7.44565 7.4226C7.70137 7.42959 7.95582 7.38444 8.19335 7.28992C8.43087 7.19541 8.64645 7.05352 8.82681 6.87301L15.5841 0.47219C15.9474 0.150321 16.4223 -0.0184234 16.9084 0.00159804C17.3944 0.0216195 17.8536 0.228839 18.189 0.579489C18.5244 0.930138 18.7097 1.39676 18.7057 1.8808C18.7017 2.36484 18.5088 2.8284 18.1678 3.17356L11.4386 9.54266C10.9207 10.055 10.3064 10.4607 9.63076 10.7366C8.95516 11.0126 8.23152 11.1533 7.50122 11.1508ZM45 7.41963C45 6.92484 44.8025 6.45032 44.4508 6.10046C44.0992 5.75059 43.6223 5.55404 43.1251 5.55404H24.3757C23.8784 5.55404 23.4015 5.75059 23.0499 6.10046C22.6983 6.45032 22.5007 6.92484 22.5007 7.41963C22.5007 7.91441 22.6983 8.38893 23.0499 8.73879C23.4015 9.08866 23.8784 9.28521 24.3757 9.28521H43.1251C43.6223 9.28521 44.0992 9.08866 44.4508 8.73879C44.8025 8.38893 45 7.91441 45 7.41963ZM11.4386 24.4673L18.1678 18.0982C18.3556 17.9319 18.5078 17.7296 18.6155 17.5035C18.7231 17.2773 18.784 17.032 18.7944 16.782C18.8048 16.532 18.7645 16.2825 18.676 16.0483C18.5875 15.8141 18.4526 15.6 18.2792 15.4187C18.1059 15.2375 17.8977 15.0928 17.6669 14.9932C17.4362 14.8937 17.1878 14.8414 16.9363 14.8393C16.6849 14.8373 16.4356 14.8856 16.2033 14.9814C15.971 15.0771 15.7604 15.2185 15.5841 15.3969L8.83431 21.7977C8.47738 22.1373 8.00257 22.3268 7.50872 22.3268C7.01488 22.3268 6.54007 22.1373 6.18314 21.7977L3.20199 18.8407C2.84837 18.5009 2.37476 18.3129 1.88316 18.3171C1.39155 18.3214 0.921295 18.5176 0.573666 18.8635C0.226037 19.2094 0.0288517 19.6773 0.0245798 20.1664C0.0203079 20.6556 0.209291 21.1268 0.550826 21.4787L3.5226 24.4356C4.57196 25.48 5.99362 26.0693 7.47778 26.0753C8.96195 26.0812 10.3883 25.5033 11.4461 24.4673H11.4386ZM45 22.3443C45 21.8495 44.8025 21.375 44.4508 21.0251C44.0992 20.6753 43.6223 20.4787 43.1251 20.4787H24.3757C23.8784 20.4787 23.4015 20.6753 23.0499 21.0251C22.6983 21.375 22.5007 21.8495 22.5007 22.3443C22.5007 22.8391 22.6983 23.3136 23.0499 23.6635C23.4015 24.0133 23.8784 24.2099 24.3757 24.2099H43.1251C43.6223 24.2099 44.0992 24.0133 44.4508 23.6635C44.8025 23.3136 45 22.8391 45 22.3443ZM11.4386 39.392L18.1603 33.0229C18.3481 32.8565 18.5003 32.6543 18.608 32.4281C18.7156 32.202 18.7765 31.9567 18.7869 31.7067C18.7973 31.4567 18.757 31.2072 18.6685 30.973C18.58 30.7388 18.4451 30.5247 18.2717 30.3434C18.0984 30.1622 17.8902 30.0175 17.6595 29.9179C17.4287 29.8184 17.1803 29.766 16.9288 29.764C16.6774 29.7619 16.4281 29.8103 16.1958 29.906C15.9635 30.0018 15.7529 30.1431 15.5766 30.3215L8.82681 36.7224C8.64645 36.9029 8.43087 37.0448 8.19335 37.1393C7.95582 37.2338 7.70137 37.2789 7.44565 37.272C7.18993 37.265 6.93835 37.206 6.70639 37.0986C6.47444 36.9913 6.26702 36.8378 6.0969 36.6477L3.12512 34.0098C2.75366 33.6803 2.26586 33.5111 1.76902 33.5394C1.27218 33.5677 0.807007 33.7913 0.475829 34.1609C0.144651 34.5305 -0.0254028 35.0159 0.00307831 35.5102C0.0315595 36.0046 0.256242 36.4675 0.627699 36.797L3.5226 39.3603C4.57196 40.4047 5.99362 40.994 7.47778 41C8.96195 41.0059 10.3883 40.4279 11.4461 39.392H11.4386ZM45 37.269C45 36.7742 44.8025 36.2997 44.4508 35.9498C44.0992 35.5999 43.6223 35.4034 43.1251 35.4034H24.3757C23.8784 35.4034 23.4015 35.5999 23.0499 35.9498C22.6983 36.2997 22.5007 36.7742 22.5007 37.269C22.5007 37.7638 22.6983 38.2383 23.0499 38.5881C23.4015 38.938 23.8784 39.1346 24.3757 39.1346H43.1251C43.6223 39.1346 44.0992 38.938 44.4508 38.5881C44.8025 38.2383 45 37.7638 45 37.269Z" fill="#292929"/>
</svg>
